<svg width="220" height="65" viewBox="0 0 220 65" fill="none" xmlns="http://www.w3.org/2000/svg">
<path d="M220 30.8239H213.264V21.4254C213.264 19.7853 213.097 18.6709 212.755 18.0682C212.253 17.1781 211.493 16.7366 210.489 16.7366C209.373 16.7366 208.516 17.2202 207.916 18.1873C207.491 18.8741 207.282 19.9535 207.282 21.4254V30.8239H200.546V21.4395C200.546 19.8064 200.406 18.741 200.135 18.2505C199.591 17.2692 198.754 16.7787 197.624 16.7787C196.578 16.7787 195.762 17.1992 195.177 18.0472C194.961 18.3485 194.8 18.755 194.703 19.2807C194.612 19.8064 194.563 20.5283 194.563 21.4395V30.8239H187.828V11.7745H194.563V14.1294C195.358 13.3655 196.083 12.8047 196.739 12.4473C197.924 11.8026 199.256 11.4802 200.713 11.4802C202.589 11.4802 204.151 11.9567 205.392 12.9098C206.02 13.4075 206.626 14.1013 207.198 15.0054C207.714 14.1574 208.293 13.4846 208.934 12.9939C210.287 11.9567 211.828 11.438 213.557 11.438C214.973 11.438 216.235 11.7815 217.343 12.4683C218.529 13.2182 219.303 14.2345 219.672 15.524C219.888 16.302 220 17.2763 220 18.4396V30.8239Z" fill="white"/>
<path d="M183.992 21.2851C183.992 23.9344 183.128 26.1981 181.399 28.0903C179.307 30.3892 176.371 31.5387 172.606 31.5387C168.82 31.5387 165.877 30.3892 163.785 28.0903C162.056 26.1981 161.191 23.8783 161.191 21.1239C161.191 18.6427 162.063 16.4491 163.806 14.5287C165.912 12.2159 168.917 11.0596 172.808 11.0596C176.385 11.0596 179.244 12.2159 181.378 14.5287C183.121 16.421 183.992 18.6708 183.992 21.2851ZM177.006 21.2851C177.006 20.0515 176.573 19.0073 175.716 18.1522C174.858 17.2902 173.819 16.8626 172.606 16.8626C171.225 16.8626 170.103 17.3813 169.231 18.4256C168.527 19.2665 168.178 20.2198 168.178 21.2851C168.178 22.3714 168.527 23.3316 169.231 24.1726C170.103 25.217 171.225 25.7355 172.606 25.7355C173.833 25.7355 174.872 25.3081 175.73 24.446C176.58 23.5909 177.006 22.5396 177.006 21.2851Z" fill="#EAEAEA"/>
<path d="M168.119 21.2851C168.119 23.9344 167.254 26.1981 165.525 28.0903C163.433 30.3892 160.498 31.5387 156.732 31.5387C152.946 31.5387 150.004 30.3892 147.912 28.0903C146.183 26.1981 145.318 23.8783 145.318 21.1239C145.318 18.6427 146.19 16.4491 147.933 14.5287C150.039 12.2159 153.044 11.0596 156.935 11.0596C160.512 11.0596 163.37 12.2159 165.504 14.5287C167.247 16.421 168.119 18.6708 168.119 21.2851ZM161.132 21.2851C161.132 20.0515 160.7 19.0073 159.842 18.1522C158.985 17.2902 157.946 16.8626 156.732 16.8626C155.352 16.8626 154.229 17.3813 153.358 18.4256C152.653 19.2665 152.305 20.2198 152.305 21.2851C152.305 22.3714 152.653 23.3316 153.358 24.1726C154.229 25.217 155.352 25.7355 156.732 25.7355C157.96 25.7355 158.998 25.3081 159.856 24.446C160.707 23.5909 161.132 22.5396 161.132 21.2851Z" fill="#EAEAEA"/>
<path d="M143.094 18.005C142.159 17.5493 141.211 17.3251 140.242 17.3251C138.045 17.3251 136.623 18.2363 135.974 20.0586C135.73 20.7104 135.605 21.5934 135.605 22.7008V30.8237H128.869V11.7744H135.605V14.9282C136.309 13.8138 137.069 13.0078 137.885 12.5102C138.98 11.8514 140.284 11.522 141.79 11.522C142.145 11.522 142.578 11.5431 143.094 11.5852V18.005Z" fill="white"/>
<path d="M110.461 30.8239H103.725V21.2151C103.725 19.519 103.537 18.4046 103.16 17.858C102.617 17.0519 101.794 16.6525 100.692 16.6525C99.6741 16.6525 98.8304 16.996 98.1609 17.6828C97.5473 18.3135 97.2405 19.2877 97.2405 20.6053V30.8239H90.5049V0H97.2405V14.1714C98.0145 13.2743 98.7258 12.6366 99.3742 12.2721C100.441 11.6624 101.766 11.354 103.335 11.354C105.336 11.354 106.988 11.9146 108.285 13.036C109.736 14.2976 110.461 16.1829 110.461 18.6991V30.8239Z" fill="white"/>
<path d="M85.9169 29.5275C85.9169 31.1955 85.7984 32.5413 85.5682 33.5716C85.1987 35.2185 84.2504 36.6904 82.7094 37.9869C80.764 39.6339 78.1772 40.4539 74.9487 40.4539C71.5669 40.4539 68.8824 39.5569 66.8812 37.7556C65.5425 36.5572 64.6918 35.3096 64.3223 33.9991C64.2873 33.8659 64.2317 33.5785 64.1618 33.137H71.6925C71.9087 33.7608 72.2015 34.2093 72.571 34.4826C73.1637 34.9312 73.9238 35.1554 74.8441 35.1554C76.3921 35.1554 77.5774 34.6018 78.4073 33.4873C78.9232 32.7935 79.1812 31.7913 79.1812 30.4877V28.6795C78.3794 29.4224 77.71 29.9481 77.1661 30.2495C76.0365 30.8872 74.7117 31.2026 73.1776 31.2026C71.2462 31.2026 69.5239 30.705 68.0038 29.7027C66.442 28.6795 65.3263 27.2778 64.643 25.4976C64.1828 24.2921 63.9526 22.9815 63.9526 21.5727C63.9526 18.4538 64.9358 15.9169 66.9021 13.9615C68.736 12.1391 70.9394 11.228 73.5194 11.228C74.8929 11.228 76.1133 11.5083 77.1869 12.0691C77.8215 12.4125 78.4909 12.9732 79.1812 13.7511V11.7748H85.9169V29.5275ZM79.5159 21.2224C79.5159 20.0098 79.1046 18.9656 78.2817 18.0895C77.452 17.2135 76.4409 16.7789 75.2415 16.7789C73.9028 16.7789 72.8082 17.2975 71.9504 18.3347C71.2741 19.1689 70.9394 20.136 70.9394 21.2224C70.9394 22.4418 71.3577 23.4862 72.1875 24.3482C73.0173 25.2173 74.0353 25.6517 75.2415 25.6517C76.4269 25.6517 77.438 25.2173 78.2678 24.3482C79.0975 23.4862 79.5159 22.4418 79.5159 21.2224Z" fill="white"/>
<path d="M85.9169 29.5274C85.9169 31.1954 85.7984 32.5411 85.5682 33.5715C85.1987 35.2183 84.2504 36.6903 82.7094 37.9868C80.764 39.6338 78.1772 40.4538 74.9487 40.4538C71.5669 40.4538 68.8824 39.5567 66.8812 37.7555C65.5425 36.557 64.6918 35.3094 64.3223 33.9989C64.2873 33.8658 64.2317 33.5784 64.1618 33.1369H71.6925C71.9087 33.7607 72.2015 34.2091 72.571 34.4825C73.1637 34.9311 73.9238 35.1553 74.8441 35.1553C76.3921 35.1553 77.5774 34.6016 78.4073 33.4872C78.9232 32.7934 79.1812 31.7911 79.1812 30.4876V28.6794C78.3794 29.4223 77.71 29.9479 77.1661 30.2493C76.0365 30.887 74.7117 31.2025 73.1776 31.2025C71.2462 31.2025 69.5239 30.7049 68.0038 29.7026C66.442 28.6794 65.3263 27.2777 64.643 25.4975C64.1828 24.292 63.9526 22.9813 63.9526 21.5726C63.9526 18.4537 64.9358 15.9167 66.9021 13.9613C67.3651 13.5012 67.8518 13.0993 68.362 12.7554L73.648 17.067C73.0043 17.3214 72.439 17.7438 71.9504 18.3346C71.2741 19.1687 70.9394 20.1359 70.9394 21.2223C70.9394 22.4417 71.3577 23.486 72.1875 24.3481C73.0173 25.2172 74.0353 25.6516 75.2415 25.6516C76.4269 25.6516 77.438 25.2172 78.2678 24.3481C78.9577 23.6313 79.3632 22.7887 79.4802 21.8241L85.9169 27.0741V29.5274Z" fill="#EAEAEA"/>
<path d="M60.1243 30.8238H53.3887V11.7744H60.1243V30.8238Z" fill="white"/>
<path d="M60.5013 4.44355C60.5013 5.51579 60.1387 6.41296 59.4066 7.14185C58.6815 7.87784 57.7889 8.24214 56.729 8.24214C55.6761 8.24214 54.7905 7.87074 54.0655 7.13476C53.3333 6.39893 52.9707 5.50176 52.9707 4.44355C52.9707 3.39227 53.3333 2.50218 54.0655 1.77314C54.7905 1.0373 55.6761 0.672852 56.729 0.672852C57.7749 0.672852 58.6675 1.0373 59.3996 1.77314C60.1318 2.50218 60.5013 3.39227 60.5013 4.44355Z" fill="#EAEAEA"/>
<path d="M56.2798 8.21863C55.4217 8.12637 54.6849 7.76369 54.0655 7.13487C53.3333 6.39904 52.9707 5.50188 52.9707 4.44366C52.9707 3.39238 53.3333 2.5023 54.0655 1.77325C54.6849 1.14458 55.4217 0.787069 56.2798 0.696289V8.21863Z" fill="white"/>
<path d="M50.328 30.8239H34.3882V2.77539H41.6259V24.7685H50.328V30.8239Z" fill="white"/>
<path fill-rule="evenodd" clip-rule="evenodd" d="M34.388 2.77539L0 30.8239H34.388V2.77539Z" fill="#EAEAEA"/>
<path d="M127.041 43.6492H125.664V34.4541H127.041V43.6492Z" fill="white"/>
<path d="M129.828 34.4438L131.66 40.6221V34.4438H133.037V43.6492H131.555L129.655 37.7568V43.6492H128.278V34.4438H129.828Z" fill="white"/>
<path d="M135.617 35.8489H134.147V34.4541H138.454V35.8489H136.994V43.6492H135.617V35.8489Z" fill="white"/>
<path d="M139.563 43.6492V34.4438H143.492V35.8385H140.941V38.3492H142.801V39.7439H140.941V42.2545H143.492V43.6492H139.563Z" fill="white"/>
<path d="M146.618 34.4541C147.388 34.4541 147.953 34.6675 148.314 35.093C148.631 35.4648 148.789 35.9832 148.789 36.6479V37.9841C148.789 38.6349 148.542 39.1843 148.047 39.6354L149.07 43.6492H147.585L146.745 40.1864C146.706 40.1882 146.665 40.1882 146.62 40.1882H145.818V43.6492H144.441V34.4541H146.618ZM147.442 36.6702C147.442 36.1364 147.179 35.8694 146.653 35.8694H145.818V38.8141H146.653C146.872 38.8141 147.059 38.7366 147.211 38.5798C147.365 38.423 147.442 38.2337 147.442 38.0133V36.6702Z" fill="white"/>
<path d="M151.629 43.6492H150.252V34.4541H151.629V43.6492Z" fill="white"/>
<path d="M155.031 34.3403C155.64 34.3403 156.155 34.5555 156.58 34.986C157.007 35.4165 157.219 35.9348 157.219 36.5409V41.5621C157.219 42.1734 157.005 42.6934 156.577 43.1203C156.15 43.5493 155.634 43.7627 155.031 43.7627C154.423 43.7627 153.908 43.5475 153.484 43.1169C153.061 42.6865 152.851 42.1682 152.851 41.5621V36.5409C152.851 35.9296 153.065 35.4096 153.493 34.9826C153.92 34.5539 154.434 34.3403 155.031 34.3403ZM155.78 36.5168C155.78 36.2964 155.703 36.1105 155.551 35.9555C155.396 35.8021 155.211 35.7248 154.992 35.7248C154.773 35.7248 154.586 35.8021 154.43 35.9555C154.274 36.1105 154.197 36.2964 154.197 36.5168V41.5449C154.197 41.7652 154.274 41.9512 154.43 42.1062C154.586 42.2594 154.773 42.3369 154.992 42.3369C155.211 42.3369 155.396 42.2594 155.551 42.1062C155.703 41.9512 155.78 41.7652 155.78 41.5449V36.5168Z" fill="white"/>
<path d="M160.62 34.4541C161.389 34.4541 161.954 34.6675 162.316 35.093C162.633 35.4648 162.79 35.9832 162.79 36.6479V37.9841C162.79 38.6349 162.544 39.1843 162.049 39.6354L163.071 43.6492H161.586L160.747 40.1864C160.707 40.1882 160.666 40.1882 160.622 40.1882H159.82V43.6492H158.442V34.4541H160.62ZM161.444 36.6702C161.444 36.1364 161.18 35.8694 160.654 35.8694H159.82V38.8141H160.654C160.873 38.8141 161.06 38.7366 161.212 38.5798C161.367 38.423 161.444 38.2337 161.444 38.0133V36.6702Z" fill="white"/>
<path d="M130.001 51.6995C130.001 52.3056 129.789 52.8256 129.366 53.256C128.943 53.6866 128.432 53.9018 127.832 53.9018H125.664V44.6963H127.832C128.435 44.6963 128.948 44.9115 129.369 45.3421C129.79 45.7725 130.001 46.2892 130.001 46.8918V51.6995ZM127.041 52.5277H127.873C128.093 52.5277 128.278 52.4485 128.429 52.2883C128.579 52.1299 128.655 51.9423 128.655 51.727V46.9125C128.655 46.692 128.578 46.5026 128.425 46.346C128.271 46.1892 128.088 46.1117 127.873 46.1117H127.041V52.5277Z" fill="white"/>
<path d="M131.212 53.9018V44.6963H135.141V46.0911H132.59V48.6018H134.45V49.9964H132.59V52.5069H135.141V53.9018H131.212Z" fill="white"/>
<path d="M140.654 51.6167C140.664 52.2571 140.498 52.8048 140.157 53.2592C139.932 53.5675 139.617 53.7844 139.208 53.9118C138.988 53.9808 138.733 54.0152 138.442 54.0152C137.901 54.0152 137.454 53.8808 137.097 53.6106C136.801 53.3902 136.566 53.0905 136.393 52.7118C136.22 52.3311 136.119 51.8973 136.09 51.4065L137.402 51.3118C137.462 51.8474 137.602 52.2347 137.825 52.4759C137.991 52.6583 138.181 52.7444 138.396 52.7342C138.697 52.7239 138.937 52.5757 139.117 52.2865C139.209 52.1435 139.256 51.9421 139.256 51.6769C139.256 51.2946 139.083 50.9158 138.737 50.5387C138.464 50.2803 138.057 49.8912 137.512 49.3712C137.054 48.9269 136.731 48.5275 136.54 48.1744C136.337 47.7785 136.234 47.3479 136.234 46.8831C136.234 46.0461 136.513 45.4126 137.073 44.982C137.419 44.7221 137.848 44.5928 138.36 44.5928C138.851 44.5928 139.273 44.703 139.622 44.9234C139.895 45.0939 140.116 45.3333 140.284 45.6416C140.451 45.948 140.552 46.3027 140.587 46.7039L139.263 46.9449C139.223 46.5713 139.115 46.2786 138.94 46.0686C138.814 45.9188 138.63 45.8429 138.39 45.8429C138.137 45.8429 137.945 45.9549 137.813 46.1805C137.705 46.3613 137.652 46.5868 137.652 46.8555C137.652 47.2756 137.832 47.7044 138.194 48.1382C138.331 48.3053 138.536 48.5016 138.809 48.7254C139.131 48.9958 139.343 49.1836 139.446 49.2903C139.787 49.6329 140.051 49.9705 140.236 50.3028C140.325 50.4595 140.395 50.6042 140.448 50.7367C140.58 51.0638 140.648 51.3566 140.654 51.6167Z" fill="white"/>
<path d="M143.175 53.9018H141.798V44.7065H143.175V53.9018Z" fill="white"/>
<path d="M146.584 54.0156C145.976 54.0156 145.46 53.8005 145.035 53.3699C144.609 52.9395 144.396 52.4229 144.396 51.8219V46.8042C144.396 46.193 144.611 45.673 145.039 45.2459C145.465 44.8171 145.981 44.6035 146.584 44.6035C147.192 44.6035 147.708 44.8189 148.131 45.2493C148.554 45.6797 148.765 46.1981 148.765 46.8059V47.8564H147.336V46.7766C147.336 46.5579 147.259 46.3686 147.103 46.2119C146.947 46.0551 146.761 45.9776 146.541 45.9776C146.322 45.9776 146.137 46.0551 145.983 46.2119C145.83 46.3686 145.753 46.5563 145.753 46.7766V51.8082C145.753 52.0286 145.83 52.2146 145.983 52.3694C146.137 52.5228 146.322 52.6003 146.541 52.6003C146.761 52.6003 146.947 52.5228 147.103 52.3694C147.259 52.2164 147.336 52.0302 147.336 51.8116V50.0071H146.565V48.6123H148.765V51.8236C148.765 52.4348 148.551 52.9532 148.123 53.3785C147.696 53.8039 147.182 54.0156 146.584 54.0156Z" fill="white"/>
<path d="M151.516 44.6963L153.348 50.8747V44.6963H154.725V53.9018H153.243L151.343 48.0094V53.9018H149.966V44.6963H151.516Z" fill="white"/>
<path d="M130.227 61.8696C130.238 62.51 130.071 63.0575 129.731 63.5122C129.506 63.8204 129.191 64.0374 128.781 64.1648C128.562 64.2337 128.307 64.2681 128.016 64.2681C127.474 64.2681 127.027 64.1338 126.671 63.8635C126.374 63.643 126.14 63.3434 125.967 62.9647C125.794 62.584 125.693 62.1502 125.664 61.6594L126.976 61.5647C127.036 62.1001 127.176 62.4876 127.399 62.7288C127.565 62.9112 127.755 62.9973 127.969 62.987C128.271 62.9768 128.511 62.8286 128.691 62.5393C128.783 62.3964 128.829 62.1949 128.829 61.9298C128.829 61.5475 128.656 61.1686 128.31 60.7916C128.038 60.5333 127.63 60.1442 127.085 59.6241C126.628 59.1798 126.304 58.7804 126.114 58.4273C125.91 58.0313 125.807 57.6008 125.807 57.1359C125.807 56.2991 126.087 55.6654 126.647 55.235C126.993 54.9749 127.421 54.8457 127.934 54.8457C128.425 54.8457 128.847 54.956 129.196 55.1763C129.468 55.3468 129.689 55.5863 129.857 55.8945C130.025 56.2009 130.126 56.5556 130.161 56.9568L128.836 57.1979C128.797 56.8243 128.689 56.5314 128.514 56.3214C128.387 56.1717 128.204 56.0958 127.964 56.0958C127.711 56.0958 127.519 56.2078 127.387 56.4334C127.279 56.6142 127.226 56.8398 127.226 57.1083C127.226 57.5285 127.406 57.9573 127.767 58.3911C127.904 58.5582 128.11 58.7546 128.382 58.9783C128.704 59.2488 128.917 59.4364 129.02 59.5431C129.36 59.8858 129.624 60.2234 129.809 60.5557C129.898 60.7123 129.969 60.857 130.022 60.9895C130.154 61.3168 130.222 61.6095 130.227 61.8696Z" fill="white"/>
<path d="M132.645 56.3542H131.175V54.9595H135.482V56.3542H134.022V64.1545H132.645V56.3542Z" fill="white"/>
<path d="M138.766 64.2579C138.158 64.2579 137.642 64.0444 137.219 63.619C136.796 63.1937 136.585 62.6771 136.585 62.071V54.9595H137.932V62.0589C137.932 62.2794 138.009 62.4671 138.165 62.6221C138.32 62.7753 138.507 62.8528 138.726 62.8528C138.946 62.8528 139.131 62.7753 139.285 62.6221C139.437 62.4671 139.514 62.2794 139.514 62.0589V54.9595H140.953V62.071C140.953 62.6874 140.739 63.2058 140.311 63.6259C139.885 64.0478 139.369 64.2579 138.766 64.2579Z" fill="white"/>
<path d="M146.521 61.9523C146.521 62.5585 146.308 63.0785 145.885 63.509C145.462 63.9394 144.951 64.1546 144.352 64.1546H142.183V54.9492H144.352C144.955 54.9492 145.467 55.1644 145.889 55.5949C146.31 56.0254 146.521 56.5421 146.521 57.1446V61.9523ZM143.56 62.7805H144.393C144.612 62.7805 144.797 62.7014 144.948 62.5412C145.099 62.3829 145.174 62.1951 145.174 61.9799V57.1654C145.174 56.9449 145.097 56.7555 144.945 56.5988C144.79 56.4421 144.607 56.3646 144.393 56.3646H143.56V62.7805Z" fill="white"/>
<path d="M149.109 64.1545H147.732V54.9595H149.109V64.1545Z" fill="white"/>
<path d="M152.512 54.8457C153.12 54.8457 153.636 55.0609 154.061 55.4913C154.487 55.9219 154.7 56.4403 154.7 57.0463V62.0675C154.7 62.6788 154.486 63.1988 154.057 63.6258C153.631 64.0546 153.115 64.2681 152.512 64.2681C151.904 64.2681 151.388 64.0529 150.965 63.6224C150.542 63.1919 150.331 62.6736 150.331 62.0675V57.0463C150.331 56.435 150.545 55.915 150.974 55.4879C151.4 55.0593 151.914 54.8457 152.512 54.8457ZM153.26 57.0222C153.26 56.8018 153.184 56.616 153.031 56.4608C152.877 56.3076 152.692 56.2301 152.472 56.2301C152.253 56.2301 152.066 56.3076 151.911 56.4608C151.755 56.616 151.678 56.8018 151.678 57.0222V62.0502C151.678 62.2706 151.755 62.4568 151.911 62.6116C152.066 62.765 152.253 62.8423 152.472 62.8423C152.692 62.8423 152.877 62.765 153.031 62.6116C153.184 62.4568 153.26 62.2706 153.26 62.0502V57.0222Z" fill="white"/>
<path d="M126.373 17.283H122.566V64.9998H115.83V17.283H113.613V11.7743H115.83V6.05518H122.566V11.7743H126.373V17.283Z" fill="white"/>
<path d="M122.566 56.9667V65.0002H115.83V51.4727L122.566 56.9667Z" fill="#EAEAEA"/>
</svg>
