<svg width="220" height="65" viewBox="0 0 220 65" fill="none" xmlns="http://www.w3.org/2000/svg">
<path d="M220 30.8239H213.264V21.4254C213.264 19.7853 213.097 18.6709 212.755 18.0682C212.253 17.1781 211.493 16.7366 210.489 16.7366C209.373 16.7366 208.516 17.2202 207.916 18.1873C207.491 18.8741 207.282 19.9535 207.282 21.4254V30.8239H200.546V21.4395C200.546 19.8064 200.406 18.741 200.135 18.2505C199.591 17.2692 198.754 16.7787 197.624 16.7787C196.578 16.7787 195.762 17.1992 195.177 18.0472C194.961 18.3485 194.8 18.755 194.703 19.2807C194.612 19.8064 194.563 20.5283 194.563 21.4395V30.8239H187.828V11.7745H194.563V14.1294C195.358 13.3655 196.083 12.8047 196.739 12.4473C197.924 11.8026 199.256 11.4802 200.713 11.4802C202.589 11.4802 204.151 11.9567 205.392 12.9098C206.02 13.4075 206.626 14.1013 207.198 15.0054C207.714 14.1574 208.293 13.4846 208.934 12.9939C210.287 11.9567 211.828 11.438 213.557 11.438C214.973 11.438 216.235 11.7815 217.343 12.4683C218.529 13.2182 219.303 14.2345 219.672 15.524C219.888 16.302 220 17.2763 220 18.4396V30.8239Z" fill="#2B2B2A"/>
<path d="M183.992 21.2851C183.992 23.9344 183.128 26.1981 181.399 28.0903C179.307 30.3892 176.371 31.5387 172.606 31.5387C168.82 31.5387 165.877 30.3892 163.785 28.0903C162.056 26.1981 161.191 23.8783 161.191 21.1239C161.191 18.6427 162.063 16.4491 163.806 14.5287C165.912 12.2159 168.917 11.0596 172.808 11.0596C176.385 11.0596 179.244 12.2159 181.378 14.5287C183.121 16.421 183.992 18.6708 183.992 21.2851ZM177.006 21.2851C177.006 20.0515 176.573 19.0073 175.716 18.1522C174.858 17.2902 173.819 16.8626 172.606 16.8626C171.225 16.8626 170.103 17.3813 169.231 18.4256C168.527 19.2665 168.178 20.2198 168.178 21.2851C168.178 22.3714 168.527 23.3316 169.231 24.1726C170.103 25.217 171.225 25.7355 172.606 25.7355C173.833 25.7355 174.872 25.3081 175.73 24.446C176.58 23.5909 177.006 22.5396 177.006 21.2851Z" fill="#F7A015"/>
<path d="M168.119 21.2851C168.119 23.9344 167.254 26.1981 165.525 28.0903C163.433 30.3892 160.498 31.5387 156.732 31.5387C152.946 31.5387 150.004 30.3892 147.912 28.0903C146.183 26.1981 145.318 23.8783 145.318 21.1239C145.318 18.6427 146.19 16.4491 147.933 14.5287C150.039 12.2159 153.044 11.0596 156.935 11.0596C160.512 11.0596 163.37 12.2159 165.504 14.5287C167.247 16.421 168.119 18.6708 168.119 21.2851ZM161.132 21.2851C161.132 20.0515 160.7 19.0073 159.842 18.1522C158.985 17.2902 157.946 16.8626 156.732 16.8626C155.352 16.8626 154.229 17.3813 153.358 18.4256C152.653 19.2665 152.305 20.2198 152.305 21.2851C152.305 22.3714 152.653 23.3316 153.358 24.1726C154.229 25.217 155.352 25.7355 156.732 25.7355C157.96 25.7355 158.998 25.3081 159.856 24.446C160.707 23.5909 161.132 22.5396 161.132 21.2851Z" fill="#F7A015"/>
<path d="M143.094 18.0052C142.159 17.5496 141.211 17.3253 140.242 17.3253C138.045 17.3253 136.623 18.2366 135.974 20.0588C135.73 20.7106 135.605 21.5936 135.605 22.701V30.824H128.869V11.7746H135.605V14.9285C136.309 13.814 137.069 13.0081 137.885 12.5105C138.98 11.8517 140.284 11.5222 141.79 11.5222C142.145 11.5222 142.578 11.5433 143.094 11.5854V18.0052Z" fill="#2B2B2A"/>
<path d="M110.461 30.8239H103.725V21.2151C103.725 19.519 103.537 18.4046 103.16 17.858C102.617 17.0519 101.794 16.6525 100.692 16.6525C99.6741 16.6525 98.8304 16.996 98.1609 17.6828C97.5473 18.3135 97.2405 19.2877 97.2405 20.6053V30.8239H90.5049V0H97.2405V14.1714C98.0145 13.2743 98.7258 12.6366 99.3742 12.2721C100.441 11.6624 101.766 11.354 103.335 11.354C105.336 11.354 106.988 11.9146 108.285 13.036C109.736 14.2976 110.461 16.1829 110.461 18.6991V30.8239Z" fill="#2B2B2A"/>
<path d="M85.9169 29.5273C85.9169 31.1953 85.7984 32.541 85.5682 33.5714C85.1987 35.2182 84.2504 36.6902 82.7094 37.9867C80.764 39.6337 78.1772 40.4537 74.9487 40.4537C71.5669 40.4537 68.8824 39.5566 66.8812 37.7554C65.5425 36.5569 64.6918 35.3093 64.3223 33.9988C64.2873 33.8657 64.2317 33.5783 64.1618 33.1368H71.6925C71.9087 33.7606 72.2015 34.209 72.571 34.4824C73.1637 34.931 73.9238 35.1552 74.8441 35.1552C76.3921 35.1552 77.5774 34.6015 78.4073 33.4871C78.9232 32.7933 79.1812 31.791 79.1812 30.4875V28.6793C78.3794 29.4222 77.71 29.9478 77.1661 30.2492C76.0365 30.8869 74.7117 31.2024 73.1776 31.2024C71.2462 31.2024 69.5239 30.7048 68.0038 29.7025C66.442 28.6793 65.3263 27.2776 64.643 25.4974C64.1828 24.2918 63.9526 22.9812 63.9526 21.5724C63.9526 18.4536 64.9358 15.9166 66.9021 13.9612C68.736 12.1388 70.9394 11.2278 73.5194 11.2278C74.8929 11.2278 76.1133 11.5081 77.1869 12.0689C77.8215 12.4122 78.4909 12.973 79.1812 13.7509V11.7745H85.9169V29.5273ZM79.5159 21.2222C79.5159 20.0095 79.1046 18.9654 78.2817 18.0893C77.452 17.2132 76.4409 16.7787 75.2415 16.7787C73.9028 16.7787 72.8082 17.2972 71.9504 18.3345C71.2741 19.1686 70.9394 20.1357 70.9394 21.2222C70.9394 22.4416 71.3577 23.4859 72.1875 24.348C73.0173 25.2171 74.0353 25.6515 75.2415 25.6515C76.4269 25.6515 77.438 25.2171 78.2678 24.348C79.0975 23.4859 79.5159 22.4416 79.5159 21.2222Z" fill="#2B2B2A"/>
<path d="M85.9169 29.5274C85.9169 31.1954 85.7984 32.5411 85.5682 33.5715C85.1987 35.2183 84.2504 36.6903 82.7094 37.9868C80.764 39.6338 78.1772 40.4538 74.9487 40.4538C71.5669 40.4538 68.8824 39.5567 66.8812 37.7555C65.5425 36.557 64.6918 35.3094 64.3223 33.9989C64.2873 33.8658 64.2317 33.5784 64.1618 33.1369H71.6925C71.9087 33.7607 72.2015 34.2091 72.571 34.4825C73.1637 34.9311 73.9238 35.1553 74.8441 35.1553C76.3921 35.1553 77.5774 34.6016 78.4073 33.4872C78.9232 32.7934 79.1812 31.7911 79.1812 30.4876V28.6794C78.3794 29.4223 77.71 29.9479 77.1661 30.2493C76.0365 30.887 74.7117 31.2025 73.1776 31.2025C71.2462 31.2025 69.5239 30.7049 68.0038 29.7026C66.442 28.6794 65.3263 27.2777 64.643 25.4975C64.1828 24.292 63.9526 22.9813 63.9526 21.5726C63.9526 18.4537 64.9358 15.9167 66.9021 13.9613C67.3651 13.5012 67.8518 13.0993 68.362 12.7554L73.648 17.067C73.0043 17.3214 72.439 17.7438 71.9504 18.3346C71.2741 19.1687 70.9394 20.1359 70.9394 21.2223C70.9394 22.4417 71.3577 23.486 72.1875 24.3481C73.0173 25.2172 74.0353 25.6516 75.2415 25.6516C76.4269 25.6516 77.438 25.2172 78.2678 24.3481C78.9577 23.6313 79.3632 22.7887 79.4802 21.8241L85.9169 27.0741V29.5274Z" fill="#F7A015"/>
<path d="M60.1243 30.824H53.3887V11.7747H60.1243V30.824Z" fill="#2B2B2A"/>
<path d="M60.5013 4.44355C60.5013 5.51579 60.1387 6.41296 59.4066 7.14185C58.6815 7.87784 57.7889 8.24214 56.729 8.24214C55.6761 8.24214 54.7905 7.87074 54.0655 7.13476C53.3333 6.39893 52.9707 5.50176 52.9707 4.44355C52.9707 3.39227 53.3333 2.50218 54.0655 1.77314C54.7905 1.0373 55.6761 0.672852 56.729 0.672852C57.7749 0.672852 58.6675 1.0373 59.3996 1.77314C60.1318 2.50218 60.5013 3.39227 60.5013 4.44355Z" fill="#F7A015"/>
<path d="M56.2798 8.21838C55.4217 8.12613 54.6849 7.76345 54.0655 7.13463C53.3333 6.3988 52.9707 5.50163 52.9707 4.44342C52.9707 3.39214 53.3333 2.50205 54.0655 1.77301C54.6849 1.14434 55.4217 0.786825 56.2798 0.696045V8.21838Z" fill="#2B2B2A"/>
<path d="M50.328 30.8239H34.3882V2.77539H41.6259V24.7685H50.328V30.8239Z" fill="#2B2B2A"/>
<path fill-rule="evenodd" clip-rule="evenodd" d="M34.388 2.77539L0 30.8239H34.388V2.77539Z" fill="#F7A015"/>
<path d="M127.041 43.6492H125.664V34.4541H127.041V43.6492Z" fill="#2B2B2A"/>
<path d="M129.828 34.4438L131.66 40.6221V34.4438H133.037V43.6492H131.555L129.655 37.7568V43.6492H128.278V34.4438H129.828Z" fill="#2B2B2A"/>
<path d="M135.617 35.8489H134.147V34.4541H138.454V35.8489H136.994V43.6492H135.617V35.8489Z" fill="#2B2B2A"/>
<path d="M139.563 43.6492V34.4438H143.492V35.8385H140.941V38.3492H142.801V39.7439H140.941V42.2545H143.492V43.6492H139.563Z" fill="#2B2B2A"/>
<path d="M146.618 34.4541C147.388 34.4541 147.953 34.6675 148.314 35.093C148.631 35.4648 148.789 35.9832 148.789 36.6479V37.9841C148.789 38.6349 148.542 39.1843 148.047 39.6354L149.07 43.6492H147.585L146.745 40.1864C146.706 40.1882 146.665 40.1882 146.62 40.1882H145.818V43.6492H144.441V34.4541H146.618ZM147.442 36.6702C147.442 36.1364 147.179 35.8694 146.653 35.8694H145.818V38.8141H146.653C146.872 38.8141 147.059 38.7366 147.211 38.5798C147.365 38.423 147.442 38.2337 147.442 38.0133V36.6702Z" fill="#2B2B2A"/>
<path d="M151.629 43.6492H150.252V34.4541H151.629V43.6492Z" fill="#2B2B2A"/>
<path d="M155.031 34.3406C155.64 34.3406 156.155 34.5558 156.58 34.9862C157.007 35.4168 157.219 35.935 157.219 36.5411V41.5624C157.219 42.1736 157.005 42.6937 156.577 43.1205C156.15 43.5495 155.634 43.7629 155.031 43.7629C154.423 43.7629 153.908 43.5477 153.484 43.1171C153.061 42.6867 152.851 42.1685 152.851 41.5624V36.5411C152.851 35.9299 153.065 35.4099 153.493 34.9828C153.92 34.5542 154.434 34.3406 155.031 34.3406ZM155.78 36.5171C155.78 36.2967 155.703 36.1107 155.551 35.9557C155.396 35.8024 155.211 35.725 154.992 35.725C154.773 35.725 154.586 35.8024 154.43 35.9557C154.274 36.1107 154.197 36.2967 154.197 36.5171V41.5451C154.197 41.7655 154.274 41.9515 154.43 42.1065C154.586 42.2597 154.773 42.3372 154.992 42.3372C155.211 42.3372 155.396 42.2597 155.551 42.1065C155.703 41.9515 155.78 41.7655 155.78 41.5451V36.5171Z" fill="#2B2B2A"/>
<path d="M160.62 34.4541C161.389 34.4541 161.954 34.6675 162.316 35.093C162.633 35.4648 162.79 35.9832 162.79 36.6479V37.9841C162.79 38.6349 162.544 39.1843 162.049 39.6354L163.071 43.6492H161.586L160.747 40.1864C160.707 40.1882 160.666 40.1882 160.622 40.1882H159.82V43.6492H158.442V34.4541H160.62ZM161.444 36.6702C161.444 36.1364 161.18 35.8694 160.654 35.8694H159.82V38.8141H160.654C160.873 38.8141 161.06 38.7366 161.212 38.5798C161.367 38.423 161.444 38.2337 161.444 38.0133V36.6702Z" fill="#2B2B2A"/>
<path d="M130.001 51.6997C130.001 52.3058 129.789 52.8259 129.366 53.2563C128.943 53.6869 128.432 53.9021 127.832 53.9021H125.664V44.6965H127.832C128.435 44.6965 128.948 44.9117 129.369 45.3423C129.79 45.7728 130.001 46.2894 130.001 46.8921V51.6997ZM127.041 52.528H127.873C128.093 52.528 128.278 52.4487 128.429 52.2886C128.579 52.1302 128.655 51.9426 128.655 51.7272V46.9128C128.655 46.6922 128.578 46.5028 128.425 46.3462C128.271 46.1895 128.088 46.112 127.873 46.112H127.041V52.528Z" fill="#2B2B2A"/>
<path d="M131.212 53.9021V44.6965H135.141V46.0913H132.59V48.602H134.45V49.9966H132.59V52.5072H135.141V53.9021H131.212Z" fill="#2B2B2A"/>
<path d="M140.654 51.6171C140.664 52.2576 140.498 52.8052 140.157 53.2597C139.932 53.5679 139.617 53.7849 139.208 53.9123C138.988 53.9813 138.733 54.0156 138.442 54.0156C137.901 54.0156 137.454 53.8813 137.097 53.6111C136.801 53.3907 136.566 53.091 136.393 52.7123C136.22 52.3316 136.119 51.8977 136.09 51.4069L137.402 51.3123C137.462 51.8479 137.602 52.2352 137.825 52.4764C137.991 52.6588 138.181 52.7449 138.396 52.7347C138.697 52.7244 138.937 52.5762 139.117 52.287C139.209 52.144 139.256 51.9426 139.256 51.6774C139.256 51.2951 139.083 50.9163 138.737 50.5391C138.464 50.2808 138.057 49.8917 137.512 49.3717C137.054 48.9274 136.731 48.528 136.54 48.1749C136.337 47.779 136.234 47.3484 136.234 46.8836C136.234 46.0466 136.513 45.4131 137.073 44.9825C137.419 44.7226 137.848 44.5933 138.36 44.5933C138.851 44.5933 139.273 44.7035 139.622 44.9239C139.895 45.0944 140.116 45.3338 140.284 45.642C140.451 45.9485 140.552 46.3032 140.587 46.7044L139.263 46.9454C139.223 46.5718 139.115 46.2791 138.94 46.0691C138.814 45.9192 138.63 45.8434 138.39 45.8434C138.137 45.8434 137.945 45.9554 137.813 46.181C137.705 46.3618 137.652 46.5873 137.652 46.856C137.652 47.2761 137.832 47.7049 138.194 48.1387C138.331 48.3058 138.536 48.5021 138.809 48.7259C139.131 48.9963 139.343 49.1841 139.446 49.2908C139.787 49.6334 140.051 49.971 140.236 50.3033C140.325 50.46 140.395 50.6047 140.448 50.7372C140.58 51.0643 140.648 51.3571 140.654 51.6171Z" fill="#2B2B2A"/>
<path d="M143.175 53.9022H141.798V44.707H143.175V53.9022Z" fill="#2B2B2A"/>
<path d="M146.584 54.0156C145.976 54.0156 145.46 53.8005 145.035 53.3699C144.609 52.9395 144.396 52.4229 144.396 51.8219V46.8042C144.396 46.193 144.611 45.673 145.039 45.2459C145.465 44.8171 145.981 44.6035 146.584 44.6035C147.192 44.6035 147.708 44.8189 148.131 45.2493C148.554 45.6797 148.765 46.1981 148.765 46.8059V47.8564H147.336V46.7766C147.336 46.5579 147.259 46.3686 147.103 46.2119C146.947 46.0551 146.761 45.9776 146.541 45.9776C146.322 45.9776 146.137 46.0551 145.983 46.2119C145.83 46.3686 145.753 46.5563 145.753 46.7766V51.8082C145.753 52.0286 145.83 52.2146 145.983 52.3694C146.137 52.5228 146.322 52.6003 146.541 52.6003C146.761 52.6003 146.947 52.5228 147.103 52.3694C147.259 52.2164 147.336 52.0302 147.336 51.8116V50.0071H146.565V48.6123H148.765V51.8236C148.765 52.4348 148.551 52.9532 148.123 53.3785C147.696 53.8039 147.182 54.0156 146.584 54.0156Z" fill="#2B2B2A"/>
<path d="M151.516 44.6965L153.348 50.8749V44.6965H154.725V53.9021H153.243L151.343 48.0096V53.9021H149.966V44.6965H151.516Z" fill="#2B2B2A"/>
<path d="M130.227 61.8701C130.238 62.5105 130.071 63.058 129.731 63.5127C129.506 63.8209 129.191 64.0379 128.781 64.1652C128.562 64.2342 128.307 64.2686 128.016 64.2686C127.474 64.2686 127.027 64.1342 126.671 63.864C126.374 63.6434 126.14 63.3439 125.967 62.9652C125.794 62.5845 125.693 62.1507 125.664 61.6599L126.976 61.5652C127.036 62.1006 127.176 62.4881 127.399 62.7293C127.565 62.9117 127.755 62.9978 127.969 62.9875C128.271 62.9773 128.511 62.8291 128.691 62.5398C128.783 62.3969 128.829 62.1954 128.829 61.9303C128.829 61.548 128.656 61.1691 128.31 60.7921C128.038 60.5337 127.63 60.1446 127.085 59.6246C126.628 59.1803 126.304 58.7809 126.114 58.4278C125.91 58.0318 125.807 57.6013 125.807 57.1363C125.807 56.2995 126.087 55.6659 126.647 55.2354C126.993 54.9754 127.421 54.8462 127.934 54.8462C128.425 54.8462 128.847 54.9564 129.196 55.1768C129.468 55.3473 129.689 55.5867 129.857 55.895C130.025 56.2014 130.126 56.5561 130.161 56.9573L128.836 57.1983C128.797 56.8247 128.689 56.5319 128.514 56.3218C128.387 56.1722 128.204 56.0963 127.964 56.0963C127.711 56.0963 127.519 56.2083 127.387 56.4339C127.279 56.6147 127.226 56.8402 127.226 57.1087C127.226 57.529 127.406 57.9578 127.767 58.3916C127.904 58.5587 128.11 58.755 128.382 58.9788C128.704 59.2492 128.917 59.4368 129.02 59.5436C129.36 59.8863 129.624 60.2239 129.809 60.5562C129.898 60.7128 129.969 60.8574 130.022 60.99C130.154 61.3173 130.222 61.61 130.227 61.8701Z" fill="#2B2B2A"/>
<path d="M132.645 56.3545H131.175V54.9597H135.482V56.3545H134.022V64.1548H132.645V56.3545Z" fill="#2B2B2A"/>
<path d="M138.766 64.2581C138.158 64.2581 137.642 64.0447 137.219 63.6193C136.796 63.194 136.585 62.6774 136.585 62.0713V54.9597H137.932V62.0592C137.932 62.2797 138.009 62.4673 138.165 62.6223C138.32 62.7755 138.507 62.853 138.726 62.853C138.946 62.853 139.131 62.7755 139.285 62.6223C139.437 62.4673 139.514 62.2797 139.514 62.0592V54.9597H140.953V62.0713C140.953 62.6877 140.739 63.2061 140.311 63.6262C139.885 64.0481 139.369 64.2581 138.766 64.2581Z" fill="#2B2B2A"/>
<path d="M146.521 61.9525C146.521 62.5587 146.308 63.0788 145.885 63.5092C145.462 63.9396 144.951 64.1549 144.352 64.1549H142.183V54.9495H144.352C144.955 54.9495 145.467 55.1647 145.889 55.5951C146.31 56.0257 146.521 56.5423 146.521 57.1449V61.9525ZM143.56 62.7808H144.393C144.612 62.7808 144.797 62.7016 144.948 62.5415C145.099 62.3831 145.174 62.1953 145.174 61.9801V57.1657C145.174 56.9451 145.097 56.7558 144.945 56.599C144.79 56.4424 144.607 56.3649 144.393 56.3649H143.56V62.7808Z" fill="#2B2B2A"/>
<path d="M149.109 64.1548H147.732V54.9597H149.109V64.1548Z" fill="#2B2B2A"/>
<path d="M152.512 54.8462C153.12 54.8462 153.636 55.0614 154.061 55.4918C154.487 55.9224 154.7 56.4408 154.7 57.0468V62.068C154.7 62.6793 154.486 63.1993 154.057 63.6263C153.631 64.0551 153.115 64.2686 152.512 64.2686C151.904 64.2686 151.388 64.0534 150.965 63.6229C150.542 63.1923 150.331 62.6741 150.331 62.068V57.0468C150.331 56.4355 150.545 55.9155 150.974 55.4884C151.4 55.0598 151.914 54.8462 152.512 54.8462ZM153.26 57.0227C153.26 56.8023 153.184 56.6165 153.031 56.4613C152.877 56.3081 152.692 56.2306 152.472 56.2306C152.253 56.2306 152.066 56.3081 151.911 56.4613C151.755 56.6165 151.678 56.8023 151.678 57.0227V62.0507C151.678 62.2711 151.755 62.4572 151.911 62.6121C152.066 62.7654 152.253 62.8428 152.472 62.8428C152.692 62.8428 152.877 62.7654 153.031 62.6121C153.184 62.4572 153.26 62.2711 153.26 62.0507V57.0227Z" fill="#2B2B2A"/>
<path d="M126.373 17.2832H122.566V65H115.83V17.2832H113.613V11.7746H115.83V6.05542H122.566V11.7746H126.373V17.2832Z" fill="#2B2B2A"/>
<path d="M122.566 56.9665V65H115.83V51.4724L122.566 56.9665Z" fill="#F7A015"/>
</svg>
